<?xml version="1.0" encoding="UTF-8" standalone="no"?>
<!-- Created with Inkscape (http://www.inkscape.org/) -->

<svg
   xmlns:dc="http://purl.org/dc/elements/1.1/"
   xmlns:cc="http://creativecommons.org/ns#"
   xmlns:rdf="http://www.w3.org/1999/02/22-rdf-syntax-ns#"
   xmlns:svg="http://www.w3.org/2000/svg"
   xmlns="http://www.w3.org/2000/svg"
   xmlns:sodipodi="http://sodipodi.sourceforge.net/DTD/sodipodi-0.dtd"
   xmlns:inkscape="http://www.inkscape.org/namespaces/inkscape"
   width="418.01047"
   height="525.89417"
   id="svg6603"
   version="1.1"
   inkscape:version="0.48.0 r9654"
   sodipodi:docname="Meuble_coq.svg">
  <defs
     id="defs6605" />
  <sodipodi:namedview
     id="base"
     pagecolor="#ffffff"
     bordercolor="#ffffff"
     borderopacity="0.0"
     inkscape:pageopacity="0.0"
     inkscape:pageshadow="0"
     inkscape:zoom="0.35"
     inkscape:cx="57.204247"
     inkscape:cy="262.55149"
     inkscape:document-units="px"
     inkscape:current-layer="layer1"
     showgrid="false"
     inkscape:window-width="703"
     inkscape:window-height="459"
     inkscape:window-x="3"
     inkscape:window-y="24"
     inkscape:window-maximized="0"
     fit-margin-top="0"
     fit-margin-left="0"
     fit-margin-right="0"
     fit-margin-bottom="0" />
  <metadata
     id="metadata6608">
    <rdf:RDF>
      <cc:Work
         rdf:about="">
        <dc:format>image/svg+xml</dc:format>
        <dc:type
           rdf:resource="http://purl.org/dc/dcmitype/StillImage" />
        <dc:title />
      </cc:Work>
    </rdf:RDF>
  </metadata>
  <g
     inkscape:label="Layer 1"
     inkscape:groupmode="layer"
     id="layer1"
     transform="translate(-2.8430868e-6,-526.46802)">
    <g
       transform="matrix(0.9133284,0,0,0.9133284,-105.9303,500.7206)"
       id="g2252">
      <path
         inkscape:connector-curvature="0"
         id="path3367"
         style="fill:#ffffff;fill-opacity:1;fill-rule:evenodd;stroke:#000000;stroke-width:2.50000024;stroke-linecap:butt;stroke-linejoin:miter;stroke-miterlimit:4;stroke-opacity:1;stroke-dasharray:none"
         d="m 136.42858,92.891343 c 17.69545,-7.426477 32.93656,2.94103 48.12165,13.714687 l -12.03041,5.29338 c -1.71157,-8.82678 -15.82185,-14.660759 -36.09124,-19.008067 z" />
      <path
         inkscape:connector-curvature="0"
         id="path3343"
         style="fill:#ffffff;fill-opacity:1;fill-rule:evenodd;stroke:#000000;stroke-width:2.50000024;stroke-linecap:butt;stroke-linejoin:miter;stroke-miterlimit:4;stroke-opacity:1;stroke-dasharray:none"
         d="m 234.59677,410.73495 -2.16548,37.29429 -20.69232,53.17444 c -5.38687,2.74659 -7.53042,8.52026 -21.89536,2.88731 -2.95295,-7.16714 -8.29423,-9.55763 -14.4365,-10.34616 -11.71101,1.05879 -16.29129,4.21244 -18.23991,7.92071 l 4.73934,4.63484 c 3.77838,-0.74949 7.21646,-2.83497 10.99484,-2.80737 4.49199,1.14696 6.48176,-0.36466 15.01737,8.77866 -11.19453,-1.19298 -22.54989,-2.53783 -32.57388,0.83972 -1.47304,0.49634 -3.19102,2.35606 -4.64994,2.7865 l 1.36109,9.07973 c 10.56793,-7.74479 22.91274,-2.82932 32.8395,-0.30606 -12.08128,4.72247 -18.99323,11.17949 -22.96246,18.39798 l 9.38373,4.81217 c 9.49736,-13.89767 25.79485,-17.33362 43.5501,-18.52685 8.84087,-2.85017 20.16924,-0.72531 30.79787,0 l 5.53399,-7.94008 c -0.27968,-7.55393 -16.36299,-3.95238 -26.46693,-4.57155 -2.48774,-6.33601 3.32213,-12.67204 6.77124,-19.00806 24.87339,3.7092 14.41276,0.43071 16.01523,-6.86087 -3.23159,0.0584 -6.49223,-0.10009 -9.553,-2.52286 7.61513,-23.07626 20.8821,-42.67447 36.81307,-60.6333 l -26.22631,-21.17353 -13.95528,4.09034 z" />
      <path
         inkscape:connector-curvature="0"
         id="path3327"
         style="fill:#ffffff;fill-opacity:1;fill-rule:evenodd;stroke:#000000;stroke-width:2.50000024;stroke-linecap:butt;stroke-linejoin:miter;stroke-miterlimit:4;stroke-opacity:1;stroke-dasharray:none"
         d="m 192.09245,368.85313 c 2.14536,9.75445 0.18105,19.50891 8.84706,29.26336 6.22366,13.1371 15.36008,18.99228 25.1801,23.13847 l -0.68055,16.33303 c 3.20512,-2.94902 4.41523,-5.89804 10.8887,-8.84705 l 7.48597,11.56922 14.97196,5.44435 7.48596,-9.52761 -8.16651,-19.73575 12.24977,17.69412 c 4.82075,-10.20814 -3.44348,-20.41629 -6.80542,-30.62443" />
      <path
         inkscape:connector-curvature="0"
         id="path3363"
         style="fill:#ffffff;fill-opacity:1;fill-rule:evenodd;stroke:#000000;stroke-width:2.50000024;stroke-linecap:butt;stroke-linejoin:miter;stroke-miterlimit:4;stroke-opacity:1;stroke-dasharray:none"
         d="m 275.01897,256.98622 c 36.24425,2.26772 81.11,16.26063 87.10022,-22.61717 l 12.51163,1.44365 c -11.73009,-36.41207 -16.44758,-72.82412 2.40607,-109.23619 31.03787,-41.646022 72.10238,-35.386944 114.52959,-22.61718 45.07119,26.2348 61.15065,54.46901 69.29519,83.25047 C 538.99025,157.475 437.65793,64.362561 395.32314,158.81803 c 44.86303,-80.964072 137.99115,-13.84297 134.74067,19.72988 -21.85242,-29.47477 -63.9641,-42.39165 -83.7317,-35.61003 22.90997,-9.6449 60.07649,12.9711 74.13057,37.02974 9.92901,16.99709 25.84322,32.52583 51.94819,38.52127 -12.42435,20.40758 -45.41166,2.47469 -70.09184,-25.70695 -21.72243,-24.80426 -53.24789,-38.06568 -77.05872,-27.67389 30.27043,-9.43871 62.62767,5.41677 78.90918,33.49557 10.50572,18.11796 26.45085,40.23898 49.95514,57.42018 -8.29555,8.72582 -42.2929,-11.29629 -75.8693,-53.29143 -16.47127,-20.60119 -49.92297,-14.53587 -74.75151,1.80124 81.81476,-42.66554 83.42659,32.32372 123.67268,61.59573 -9.32792,3.13088 -19.06726,4.30579 -36.66963,-21.55698 -24.77728,-36.40469 -60.73012,-44.0739 -85.5594,-10.68453 25.89182,-25.55029 51.12793,-29.33757 76.99639,-0.98824 9.6145,10.53657 8.03198,31.62031 30.79614,46.2226 -10.28345,4.24699 -22.69498,-1.39377 -41.90289,-29.77283 -13.53147,-19.9923 -41.68075,-16.63083 -62.52113,3.78713 42.05247,-32.41178 61.77385,-6.05759 79.88198,24.54206 -26.4039,-19.76393 -52.35275,-25.87647 -77.47589,-7.21825 33.74796,-21.31501 55.7625,-5.29639 75.55102,17.80501 -27.171,-13.7002 -52.06784,-15.44626 -74.10737,4.33096 37.53926,-17.84023 74.03275,-9.57212 78.43831,33.20395 -18.16899,-31.6146 -49.81008,-17.76091 -77.47588,-17.32381 24.54897,-0.0901 49.79804,-1.18668 54.37748,27.42935 -18.12583,-10.09967 -36.25166,-7.7242 -54.37748,-5.29338 36.31606,2.7222 59.67145,5.16576 60.63329,28.873 -15.86223,-8.48373 -38.0322,-11.9213 -60.15208,-15.39894 25.67038,4.15526 51.62054,8.15986 44.75316,29.83544 -17.68652,-12.29489 -36.92373,-10.63362 -55.82113,-12.03041 14.56996,3.99258 34.42747,0.9351 34.6476,24.06082 -12.03042,-7.66627 -24.06083,-11.63943 -36.09126,-13.95528 8.84234,9.05302 20.02183,7.58881 26.46692,27.42935 l -40.4222,-14.4365 -112.12348,-128.00364 z" />
      <path
         inkscape:connector-curvature="0"
         id="path3353"
         style="fill:#ffffff;fill-opacity:1;fill-rule:evenodd;stroke:#000000;stroke-width:2.50000024;stroke-linecap:butt;stroke-linejoin:miter;stroke-miterlimit:4;stroke-opacity:1;stroke-dasharray:none"
         d="m 344.79538,447.30742 14.19589,14.43651 c -4.23205,19.64967 -5.39172,39.29935 -3.84972,58.94904 3.7559,0.83473 7.70664,0.5004 11.79054,-0.63278 l 2.54879,7.1711 c -4.04169,2.80939 -8.93021,4.77196 -15.30177,5.25148 0.50102,4.09035 0.0408,8.18067 4.81216,12.27102 10.58678,3.98483 15.88016,-2.07909 23.82023,5.77461 l -3.12791,7.69946 c -6.49642,-1.02575 -12.99285,-1.52003 -19.48927,0 l -11.5492,8.6619 -8.6619,0 c -5.1527,10.01738 -18.46028,10.99211 -18.28624,22.8578 l -8.9025,1.92487 -8.4213,-5.77461 c 13.18846,-5.66738 14.92965,-20.20066 28.39179,-26.22631 -10.19381,5.57428 -20.18862,10.15355 -29.11361,9.38373 -3.98809,4.49086 -3.54193,11.56834 -14.4365,12.03041 l -6.49643,-8.90251 16.36137,-13.95528 25.02327,-6.0152 -9.14312,-4.81217 c -5.66897,4.38323 -11.84195,2.65137 -14.43651,5.7746 l -2.88729,-8.66189 c 0.84407,-5.44827 10.35983,-6.07892 16.36137,-8.66192 7.12834,2.99401 13.94298,9.43887 21.65474,6.01522 0.44047,-19.00148 2.8121,-37.6811 -0.24061,-57.26479 -0.99388,-1.36836 -1.94103,-2.73672 -2.84026,-4.10508 -1.41986,-2.16057 -2.72028,-4.32113 -3.89676,-6.48169 l -2.40609,-20.69232 18.52684,-6.0152 z" />
      <path
         inkscape:connector-curvature="0"
         id="path3339"
         style="fill:#ffffff;fill-opacity:1;fill-rule:evenodd;stroke:#000000;stroke-width:2.50000024;stroke-linecap:butt;stroke-linejoin:miter;stroke-miterlimit:4;stroke-opacity:1;stroke-dasharray:none"
         d="m 174.56846,64.820485 -6.29501,-6.124889 c -0.0481,-19.343074 10.48174,-21.857667 20.07602,-25.860633 -4.87415,7.091053 -1.94894,9.168254 -0.85068,12.419919 20.81565,-24.38179 29.73302,-13.861879 41.51313,-11.73938 -7.79952,1.153477 -14.91801,3.158223 -15.14208,13.780997 12.54904,-0.0021 21.41327,-7.834344 31.64525,-12.760176 -2.13604,3.57919 -5.0151,6.910694 -4.42353,11.399085 13.74268,0.616953 22.28753,-4.830255 32.49595,-8.336647 -6.09336,9.279347 -14.7842,17.519694 -30.45432,22.968324 27.00942,-9.776117 42.41013,-6.782662 50.19006,4.59367 -22.09312,-0.326618 -24.5855,17.202545 -58.86698,18.544807 L 174.56846,64.820485 z" />
      <path
         inkscape:connector-curvature="0"
         id="path3182"
         style="fill:#ffffff;fill-opacity:1;fill-rule:evenodd;stroke:#000000;stroke-width:2.50000024;stroke-linecap:butt;stroke-linejoin:miter;stroke-miterlimit:4;stroke-opacity:1;stroke-dasharray:none"
         d="m 316.88482,263.72327 c 37.05753,2.65786 38.80067,-19.77608 53.89626,-32.72275 -7.83128,15.30329 4.57042,27.17078 -33.68517,47.64045 19.83466,-5.73196 35.0272,-34.67447 51.97141,-54.8587 -9.56376,21.6734 -8.7759,46.53191 -41.38463,61.11453 21.67403,-9.81038 34.79356,-26.03664 49.0841,-41.38463 -1.46378,21.88288 -13.22838,39.0274 -46.67803,46.19679 20.042,-3.04063 40.06575,-6.17854 58.22722,-19.24866 -2.33866,16.98605 -22.5377,26.31766 -56.30233,29.83544 20.72981,-0.43736 41.48915,-0.4616 61.59571,-9.62434 -7.93012,17.43736 -41.0756,18.06451 -71.22005,20.69231 23.74002,-0.88685 47.48003,1.67987 71.22005,-6.25581 -6.08241,11.76914 -32.0393,14.26351 -56.78355,17.32379 18.37399,-0.68094 36.5519,-1.03508 56.78355,-4.81216 -13.09216,9.20419 -31.26515,13.32759 -50.04652,16.84258 16.36136,0.10554 32.72273,0.4084 49.0841,-3.84973 -7.6636,6.11035 -19.28468,10.57177 -34.6476,13.47406 13.95529,-1.76445 26.62732,-1.60405 38.01611,0.48122 -6.83591,2.77445 -12.44332,5.81215 -27.91056,6.73703 8.4908,0.81273 16.83514,1.77191 24.06083,3.84973 -6.14101,5.13005 -11.93011,10.44779 -27.42936,10.58678 l -38.49733,-17.80502 -29.35421,-84.21291 z" />
      <path
         inkscape:connector-curvature="0"
         id="path2338"
         style="fill:#ffffff;fill-opacity:1;fill-rule:evenodd;stroke:#000000;stroke-width:2.50000024;stroke-linecap:butt;stroke-linejoin:miter;stroke-miterlimit:4;stroke-opacity:1;stroke-dasharray:none"
         d="m 175.07887,66.011435 c 11.75929,-5.08264 26.6321,-0.817501 41.95307,3.004064 21.00311,12.962 30.78293,26.331952 38.99029,40.915151 l -3.92522,0.10969 c 6.45096,13.38402 9.49966,30.37715 8.73031,43.76117 -5.6712,26.82494 -11.34239,31.83172 -17.01359,41.51313 -2.31385,6.35173 -5.37187,12.70347 -0.68054,19.0552 14.18809,15.57053 34.31306,16.29882 51.72128,23.81902 l 18.37466,12.9303 -13.61086,0 c 9.47869,4.61705 18.12593,6.73982 29.26336,16.33304 l -31.98553,-6.12488 c 23.12871,6.30673 47.16326,12.11024 54.44345,27.22173 l -52.40182,-17.01358 c 26.53342,11.68913 57.07113,20.04134 73.49865,40.15204 l -85.74843,-26.54118 c 39.31563,14.7451 85.05435,29.4902 93.23441,44.2353 l -83.70681,-24.49955 c 48.27201,16.19467 88.08123,33.28015 102.08148,53.08236 L 290.77121,321.21511 c 52.73854,16.06425 106.93829,31.23554 127.94211,66.69322 l -120.45613,-48.9991 c 86.04437,31.25821 116.8859,53.52991 125.21993,72.13758 L 299.61827,360.68662 c 44.7736,23.00645 107.18351,34.25536 122.49776,76.90137 l -75.54028,-37.42987 c 4.95756,5.89804 13.17025,11.79607 6.12489,17.69413 -1.90226,7.85604 7.7315,8.79046 14.2914,11.56923 -12.70347,6.6148 -25.40695,-1.6414 -38.11041,-20.4163 l 29.94389,34.02716 c -8.39336,3.26776 -16.78672,-5.08192 -25.18009,-14.2914 l 27.22172,31.98552 -10.20814,6.80543 -23.81902,5.44435 -8.84706,-22.45793 c -12.65756,-10.14018 -22.66362,-20.72228 -24.49955,-32.66606 l -54.44345,-16.33304 c -19.59499,-15.17555 -36.46994,-16.75089 -54.44345,-23.81901 -23.34146,-16.55989 -23.50811,-33.11977 -29.94389,-49.67965 -34.99637,-28.15732 -36.05802,-47.38446 -37.42988,-66.69323 3.76063,-21.32369 13.94165,-42.64737 28.58281,-63.97107 16.46425,-15.70713 26.86308,-34.88022 30.62445,-57.84615 L 168.954,122.49651 c 1.97215,-6.69214 -4.43087,-19.98298 9.29529,-15.53976 -15.80777,-16.947548 -7.67893,-28.035372 -3.17042,-44.348023" />
      <path
         inkscape:connector-curvature="0"
         id="path3331"
         style="fill:none;stroke:#000000;stroke-width:2.50000024;stroke-linecap:butt;stroke-linejoin:miter;stroke-miterlimit:4;stroke-opacity:1;stroke-dasharray:none"
         d="m 155.91784,196.59353 c 10.98636,1.04074 18.58888,-2.4303 19.9705,-14.19589" />
      <path
         inkscape:connector-curvature="0"
         id="path3333"
         style="fill:none;stroke:#000000;stroke-width:2.62395453;stroke-miterlimit:4;stroke-opacity:1;stroke-dasharray:none"
         transform="matrix(0.9527604,0,0,0.9527604,-60.389048,-273.10801)"
         d="m 267.4379,368.61517 c 0,4.3934 -3.67462,7.95495 -8.20749,7.95495 -4.53287,0 -8.20749,-3.56155 -8.20749,-7.95495 0,-4.3934 3.67462,-7.95495 8.20749,-7.95495 4.53287,0 8.20749,3.56155 8.20749,7.95495 z" />
      <path
         inkscape:connector-curvature="0"
         id="path3329"
         style="fill:#ffffff;fill-opacity:1;fill-rule:evenodd;stroke:#000000;stroke-width:2.50000024;stroke-linecap:butt;stroke-linejoin:miter;stroke-miterlimit:4;stroke-opacity:1;stroke-dasharray:none"
         d="m 169.80468,124.87842 c -5.34334,14.3802 -10.29748,25.3076 -32.28454,31.94425 -9.84384,7.70136 -8.97637,17.18461 -7.24536,26.25929 6.14249,6.87235 9.70591,6.1053 14.74343,5.61448 -1.8492,-6.51188 0.23924,-10.72554 2.9507,-18.56191 7.60575,-5.95511 8.05476,-7.94571 12.81856,-10.88869 7.44485,-9.07118 9.72825,-18.22331 12.24978,-27.90226 -6.94205,37.57568 -33.13723,29.01979 -27.77843,59.92907 l 6.68159,8.80579 c 18.70966,7.31601 30.79995,-5.28932 30.98181,-9.56889 0.25798,-31.32689 2.93604,-38.68001 10.20814,-44.2353" />
      <path
         inkscape:connector-curvature="0"
         id="path3337"
         style="fill:none;stroke:#000000;stroke-width:11.14099407;stroke-miterlimit:4;stroke-opacity:1;stroke-dasharray:none"
         transform="matrix(0.2243965,0,0,0.2243965,139.76917,-11.786211)"
         d="m 218.69803,397.90961 c 0,8.29864 -7.01004,15.02602 -15.65737,15.02602 -8.64732,0 -15.65736,-6.72738 -15.65736,-15.02602 0,-8.29864 7.01004,-15.02602 15.65736,-15.02602 8.64733,0 15.65737,6.72738 15.65737,15.02602 z" />
      <path
         inkscape:connector-curvature="0"
         id="path3345"
         style="fill:#ffffff;fill-opacity:1;fill-rule:evenodd;stroke:#000000;stroke-width:2.50000024;stroke-linecap:butt;stroke-linejoin:miter;stroke-miterlimit:4;stroke-opacity:1;stroke-dasharray:none"
         d="m 150.91959,516.19073 c -6.42478,2.40713 -9.74849,6.75244 -12.59004,11.39909 4.1287,-0.97511 6.83768,-5.20613 12.93032,-2.04163 3.37101,-3.4685 3.54547,-5.43542 -0.34028,-9.35746 z" />
      <path
         inkscape:connector-curvature="0"
         id="path3349"
         style="fill:#ffffff;fill-opacity:1;fill-rule:evenodd;stroke:#000000;stroke-width:2.50000024;stroke-linecap:butt;stroke-linejoin:miter;stroke-miterlimit:4;stroke-opacity:1;stroke-dasharray:none"
         d="m 157.89516,500.8785 c 3.24229,0.30013 5.24967,1.69796 4.42353,5.61449 -3.34599,-0.0448 -6.69201,2.11244 -10.03801,4.7638 0.91356,-3.65102 2.44349,-7.17876 5.61448,-10.37829 z" />
      <path
         inkscape:connector-curvature="0"
         id="path3355"
         style="fill:#ffffff;fill-opacity:1;fill-rule:evenodd;stroke:#000000;stroke-width:2.50000024;stroke-linecap:butt;stroke-linejoin:miter;stroke-miterlimit:4;stroke-opacity:1;stroke-dasharray:none"
         d="m 298.59859,543.55075 c -9.137,-1.38199 -10.41392,6.98082 -12.27104,12.75224 7.85576,-2.56649 9.95493,-4.41114 14.67711,-5.53398 1.50519,-1.94464 -0.88765,-4.6689 -2.40607,-7.21826 z" />
      <path
         inkscape:connector-curvature="0"
         id="path3357"
         style="fill:#ffffff;fill-opacity:1;fill-rule:evenodd;stroke:#000000;stroke-width:2.50000024;stroke-linecap:butt;stroke-linejoin:miter;stroke-miterlimit:4;stroke-opacity:1;stroke-dasharray:none"
         d="m 283.68087,572.90497 c -4.82189,3.42042 -11.11763,3.10997 -1.92487,17.80501 4.41115,-7.24802 3.04771,-7.53436 8.90251,-10.82736 -0.39695,-4.25482 -3.40424,-5.89929 -6.97764,-6.97765 z" />
      <path
         inkscape:connector-curvature="0"
         id="path3359"
         style="fill:#ffffff;fill-opacity:1;fill-rule:evenodd;stroke:#000000;stroke-width:2.50000024;stroke-linecap:butt;stroke-linejoin:miter;stroke-miterlimit:4;stroke-opacity:1;stroke-dasharray:none"
         d="m 303.17014,585.89783 c -8.15272,6.31364 -1.56453,11.09809 -2.88729,16.84257 2.52502,-5.39431 6.06354,-8.71793 13.71467,-11.54919 -1.69023,-3.95171 -5.96338,-5.17203 -10.82738,-5.29338 z" />
      <path
         inkscape:connector-curvature="0"
         id="path3361"
         style="fill:#ffffff;fill-opacity:1;fill-rule:evenodd;stroke:#000000;stroke-width:2.50000024;stroke-linecap:butt;stroke-linejoin:miter;stroke-miterlimit:4;stroke-opacity:1;stroke-dasharray:none"
         d="m 381.84907,550.28778 c 6.60869,2.18956 8.14825,5.59032 9.62433,10.34617 l -12.51162,-2.88731 c 0.12479,-2.20707 -0.85739,-4.04515 2.88729,-7.45886 z" />
      <path
         inkscape:connector-curvature="0"
         id="path3369"
         style="fill:none;stroke:#000000;stroke-width:2.50000024;stroke-linecap:butt;stroke-linejoin:miter;stroke-miterlimit:4;stroke-opacity:1;stroke-dasharray:none"
         d="m 214.38567,241.10608 c 4.56456,11.59686 11.12121,23.32651 -2.88731,33.68517 -17.32846,10.42526 -23.73535,23.42029 -19.24866,38.97854 18.20679,50.53299 103.05019,58.22817 154.95177,87.10022" />
      <path
         inkscape:connector-curvature="0"
         id="path3371"
         style="fill:none;stroke:#000000;stroke-width:2.50000024;stroke-linecap:butt;stroke-linejoin:miter;stroke-miterlimit:4;stroke-opacity:1;stroke-dasharray:none"
         d="m 148.45898,212.7143 c -24.23492,43.72647 -19.40236,53.54089 -13.47405,62.07695 -1.3947,-12.987 3.96629,-27.34564 14.4365,-38.01612 l 9.14311,-24.06083 c -15.77061,49.61571 -4.89106,49.1711 -1.44365,61.59573 -2.1175,-40.55226 9.73661,-52.3067 18.76745,-65.44546 -15.22879,32.16136 -6.19852,42.99198 0,51.00896 -3.18613,-22.75067 1.4614,-52.88473 14.91771,-58.70844" />
      <path
         inkscape:connector-curvature="0"
         id="path3375"
         style="fill:#ffffff;fill-opacity:1;fill-rule:evenodd;stroke:#000000;stroke-width:2.50000024;stroke-linecap:butt;stroke-linejoin:miter;stroke-miterlimit:4;stroke-opacity:1;stroke-dasharray:none"
         d="m 248.23726,490.33008 c -2.43073,3.34443 -1.75092,6.06675 0.34027,8.5068 5.2955,-2.60121 10.68904,-6.16332 15.99276,-9.52761 -5.45373,0.37782 -11.71827,3.99886 -16.33303,1.02081 z" />
      <path
         inkscape:connector-curvature="0"
         id="path3377"
         style="fill:#ffffff;fill-opacity:1;fill-rule:evenodd;stroke:#000000;stroke-width:2.50000024;stroke-linecap:butt;stroke-linejoin:miter;stroke-miterlimit:4;stroke-opacity:1;stroke-dasharray:none"
         d="m 366.31149,520.61426 c 0.73182,1.91537 -0.58963,4.34408 3.40272,5.44433 7.12928,-1.32492 9.29432,-7.91936 12.93032,-13.61085 -5.23078,2.82895 -9.46759,6.15489 -16.33304,8.16652 z" />
      <path
         inkscape:connector-curvature="0"
         id="path3373"
         style="fill:#ffffff;fill-opacity:1;fill-rule:evenodd;stroke:#000000;stroke-width:2.50000024;stroke-linecap:butt;stroke-linejoin:miter;stroke-miterlimit:4;stroke-opacity:1;stroke-dasharray:none"
         d="m 386.18002,216.56404 c 4.39323,-25.04592 1.46259,-50.45305 34.64759,-76.03225 27.36969,-18.67725 57.94648,-25.04988 76.99467,-35.12879 34.41315,-25.632697 30.39696,-27.053215 36.57247,-43.790746 13.65915,37.22151 -12.63382,52.614586 -35.61003,67.370356 -22.44532,9.49266 -43.35068,15.03552 -68.33277,32.72272 -24.86725,21.49434 -27.56787,42.98869 -37.05367,64.48303" />
      <path
         inkscape:connector-curvature="0"
         id="path3347"
         style="fill:#ffffff;fill-opacity:1;fill-rule:evenodd;stroke:#000000;stroke-width:2.50000024;stroke-linecap:butt;stroke-linejoin:miter;stroke-miterlimit:4;stroke-opacity:1;stroke-dasharray:none"
         d="m 162.48884,542.2215 c 1.41946,0.0161 3.8723,-1.69005 4.08325,0.34027 1.62041,0.72903 4.33077,1.14961 4.25338,5.27421 -4.12658,1.67397 -3.49902,7.04559 -3.74297,11.73938 -3.07971,-5.08076 -6.36427,-10.06842 -4.59366,-17.35386 z" />
      <path
         inkscape:connector-curvature="0"
         id="path3351"
         style="fill:#ffffff;fill-opacity:1;fill-rule:evenodd;stroke:#000000;stroke-width:2.50000024;stroke-linecap:butt;stroke-linejoin:miter;stroke-miterlimit:4;stroke-opacity:1;stroke-dasharray:none"
         d="m 251.29971,521.8052 c 5.94016,2.77908 8.65751,6.9905 10.54842,11.56924 -5.26323,-1.90788 -8.24819,-4.82833 -17.18372,-5.10408 l 6.6353,-6.46516 z" />
      <path
         inkscape:connector-curvature="0"
         id="path3222"
         style="fill:none;stroke:#000000;stroke-width:2.50000024;stroke-linecap:butt;stroke-linejoin:miter;stroke-miterlimit:4;stroke-opacity:1;stroke-dasharray:none"
         d="m 343.35173,388.35837 -60.6333,-24.54204" />
      <path
         inkscape:connector-curvature="0"
         id="path3365"
         style="fill:#ffffff;fill-opacity:1;fill-rule:evenodd;stroke:#000000;stroke-width:2.50000024;stroke-linecap:butt;stroke-linejoin:miter;stroke-miterlimit:4;stroke-opacity:1;stroke-dasharray:none"
         d="m 130.41336,75.56755 c 6.62718,0.545086 12.4595,-0.470694 17.22461,1.469239 15.02485,6.116818 23.76689,18.024142 30.65645,29.328621 -13.79696,-0.0648 -29.15785,-3.64848 -40.66281,1.44365 1.26732,1.12962 2.44556,2.82506 4.10345,2.86369 11.87212,0.27672 21.59297,4.03301 26.2132,10.61038 5.85379,-1.1157 12.03144,-4.4985 18.52684,-10.10556 -4.65176,-8.66189 -4.59234,-1.61985 -13.95528,-25.985695 1.68426,-5.213173 -0.0745,-9.565621 5.05277,-15.639544 L 174.6853,64.25895 c 0.62443,-3.015251 -3.50585,-4.445583 -6.49643,-6.255815 -2.82244,1.925299 -6.00025,3.628511 -3.84974,8.661903 -10.38515,-3.629542 -28.61372,-9.294617 -33.92577,8.902512 z" />
    </g>
  </g>
</svg>
