<?xml version="1.0" encoding="UTF-8" standalone="no"?>
<!-- Created with Inkscape (http://www.inkscape.org/) -->
<svg
   xmlns:svg="http://www.w3.org/2000/svg"
   xmlns="http://www.w3.org/2000/svg"
   version="1.0"
   width="21cm"
   height="29.699999cm"
   id="svg1389">
  <defs
     id="defs3">
    <linearGradient
       id="linearGradient8505">
      <stop
         style="stop-color:#ac4b2a;stop-opacity:1"
         offset="0"
         id="stop8507" />
      <stop
         style="stop-color:#b01c00;stop-opacity:1"
         offset="1"
         id="stop8509" />
    </linearGradient>
    <linearGradient
       id="linearGradient10268">
      <stop
         style="stop-color:#493516;stop-opacity:1"
         offset="0"
         id="stop10270" />
      <stop
         style="stop-color:#a7a7a7;stop-opacity:1"
         offset="1"
         id="stop10272" />
    </linearGradient>
  </defs>
  <g
     id="layer1">
    <g
       id="g11991">
      <path
         d="M 296.2786,749.25217 C 296.2786,750.15455 286.72845,786.39996 280.33663,812.41847 C 273.94482,838.43698 270.71127,853.32616 270.71127,853.32616 C 270.71127,853.32616 277.6295,858.66522 280.93822,863.8539 C 284.2469,869.04254 283.94611,874.08081 283.94611,874.08081 L 280.33663,869.86971 C 280.33663,869.86971 278.0055,873.70485 274.92236,873.78002 C 271.83923,873.85523 268.00413,870.17051 268.00413,870.17051 L 264.09387,879.19429 C 264.09387,879.19429 221.00539,881.6758 204.23625,881.2998 C 187.4671,880.92383 197.01726,877.69032 197.01726,877.69032 L 186.18876,881.60063 L 196.11488,875.58477 C 196.11488,875.58477 194.68613,870.62171 204.53704,868.96734 C 214.38799,867.313 222.96056,874.08081 235.5186,868.96734 C 248.07669,863.8539 251.15978,851.82219 252.36295,846.70876 C 253.56612,841.59528 260.48435,824.22455 265.29704,797.67967 C 270.10968,771.13478 271.61365,740.52918 271.61365,740.52918 L 296.2786,749.25217 z "
         style="fill:#69482e;fill-opacity:1;fill-rule:evenodd;stroke:#000000;stroke-width:3;stroke-linecap:butt;stroke-linejoin:miter;stroke-miterlimit:4;stroke-dasharray:none;stroke-opacity:1"
         id="path12915" />
      <path
         d="M 329.19192,745.05618 C 329.19192,746.0353 318.82949,785.36356 311.89403,813.59505 C 304.95854,841.82655 301.45002,857.98212 301.45002,857.98212 C 301.45002,857.98212 308.95662,863.7753 312.54675,869.40525 C 316.13689,875.03523 315.81053,880.50205 315.81053,880.50205 L 311.89403,875.93277 C 311.89403,875.93277 309.36463,880.09408 306.01927,880.17566 C 302.67392,880.25724 298.5126,876.25916 298.5126,876.25916 L 294.26975,886.05042 C 294.26975,886.05042 247.51644,888.74302 229.32102,888.33504 C 211.12556,887.92707 221.48799,884.41855 221.48799,884.41855 L 209.73847,888.6614 L 220.50887,882.13392 C 220.50887,882.13392 218.95859,876.74872 229.64738,874.95365 C 240.33617,873.15858 249.63787,880.50205 263.26407,874.95365 C 276.89024,869.40525 280.2356,856.35025 281.54108,850.80185 C 282.84659,845.25349 290.35322,826.40527 295.57526,797.60264 C 300.79727,768.80001 302.42914,735.59129 302.42914,735.59129 L 329.19192,745.05618 z "
         style="fill:#69482e;fill-opacity:1;fill-rule:evenodd;stroke:#000000;stroke-width:3;stroke-linecap:butt;stroke-linejoin:miter;stroke-miterlimit:4;stroke-dasharray:none;stroke-opacity:1"
         id="path12032" />
      <path
         d="M 279.97327,748.04004 C 279.97327,748.04004 259.06201,759.31147 247.47423,747.09283 C 236.04214,735.03832 242.17527,734.48379 213.0305,703.41216 C 183.88571,672.34056 195.21028,697.18992 158.63708,657.07578 C 140.35047,637.01872 137.8557,627.88003 120.39082,606.87965 C 102.92595,585.87931 70.491007,553.01731 66.737673,542.95563 C 57.673723,518.65764 53.352274,510.7615 59.814198,470.02841 C 66.276086,429.29532 92.585297,380.02328 92.585297,380.02328 L 139.6649,285.40253 L 126.27953,216.16782 L 176.12851,174.16542 L 179.4794,195.56304 C 194.83097,210.26793 218.37077,205.88307 239.14119,248.34702 C 259.91161,290.81097 252.2958,321.04345 263.14258,367.43071 C 273.98932,413.81796 272.69368,414.6884 277.91263,425.12633 C 283.22062,435.74228 298.99699,443.07661 313.91469,448.20454 C 328.68474,453.28174 360.30194,461.35915 372.99496,450.97391 C 385.53629,440.71284 409.68936,394.31685 438.07557,360.04568 C 467.0654,325.04579 498.48586,309.29313 523.46505,306.50416 C 547.41756,303.82984 594.7768,310.88905 620.85521,330.50554 C 648.1321,351.02358 689.28216,403.66356 686.85896,468.05183 C 684.45481,531.93426 667.24247,543.74842 661.93447,555.28755 C 657.91954,564.01571 641.62564,578.82735 641.62564,578.82735 C 641.62564,578.82735 670.24264,524.36272 673.01201,481.89878 C 675.78142,439.43479 652.70317,408.97152 652.70317,408.97152 C 652.70317,408.97152 666.31933,443.81965 654.54945,497.59196 C 642.77953,551.36424 605.62358,624.06071 605.62358,624.06071 C 605.62358,624.06071 622.47069,555.74914 626.85555,509.59264 C 631.24041,463.43618 623.16304,439.43479 623.16304,439.43479 C 623.16304,439.43479 622.93224,460.66676 617.62425,469.89806 C 612.31626,479.12936 601.93106,476.35999 601.93106,476.35999 C 601.93106,476.35999 609.0853,495.74569 600.08479,506.82326 C 591.08428,517.9008 565.929,520.67021 565.929,520.67021 C 565.929,520.67021 577.00658,547.67173 568.69841,558.51851 C 560.39025,569.36529 532.69635,564.05726 532.69635,564.05726 C 532.69635,564.05726 526.23443,582.98141 517.00317,596.36681 C 507.77187,609.75221 495.77119,617.59878 495.77119,617.59878 L 505.92559,585.28927 L 474.53918,632.36887 L 461.61537,592.6743 C 461.61537,592.6743 458.38444,618.29113 450.53783,633.29197 C 442.69122,648.29285 430.229,652.67771 430.229,652.67771 L 428.38272,624.98381 C 428.38272,624.98381 416.96167,652.5703 415.45891,648.06206 C 414.07422,643.90796 406.22761,628.67632 406.22761,628.67632 C 406.22761,628.67632 395.84242,628.90711 386.84191,638.83076 C 377.8414,648.7544 378.07216,657.29336 370.22558,668.37089 C 362.37897,679.44847 355.4555,683.14098 355.4555,683.14098 L 354.53236,669.29403 C 354.53236,669.29403 350.60906,683.83332 345.30106,692.37228 C 339.99307,700.91124 333.30039,703.44982 333.30039,703.44982 C 333.30039,703.44982 335.4928,730.22058 330.53101,748.22159 C 325.56919,766.2226 324.76143,769.56898 314.37624,772.68453 C 303.99104,775.80007 298.75301,745.48518 279.97327,748.04004 z "
         style="fill:#ffffff;fill-opacity:1;fill-rule:evenodd;stroke:#000000;stroke-width:3;stroke-linecap:butt;stroke-linejoin:miter;stroke-miterlimit:4;stroke-dasharray:none;stroke-opacity:1"
         id="path2338" />
      <path
         d="M 87.674026,259.73577 C 87.674026,259.73577 92.585625,245.86478 102.40882,237.21584 C 112.23198,228.56689 126.96681,225.13996 126.96681,225.13996 L 157.19201,257.12475 C 157.19201,257.12475 137.1678,253.53461 119.78833,254.18737 C 102.40882,254.84012 87.674026,259.73577 87.674026,259.73577 z "
         style="fill:#795543;fill-opacity:1;fill-rule:evenodd;stroke:#000000;stroke-width:3;stroke-linecap:butt;stroke-linejoin:miter;stroke-miterlimit:4;stroke-dasharray:none;stroke-opacity:1"
         id="path9393" />
      <g
         transform="matrix(1.292381,0,0,1.292381,-149.2746,-75.82452)"
         id="g7624">
        <path
           d="M 251.60714,232.36218 C 251.60714,236.40361 248.00714,239.68361 243.57143,239.68361 C 239.13571,239.68361 234.44505,236.25366 235.53571,232.36218 C 236.31353,229.58694 237.94432,228.13363 241.36988,227.35015 C 245.69394,226.36118 251.60714,228.32075 251.60714,232.36218 z "
           transform="matrix(0.901059,-0.433697,0.433697,0.901059,-76.67558,128.6263)"
           style="fill:#2b2938;fill-opacity:1;stroke:none;stroke-width:5;stroke-miterlimit:4;stroke-opacity:1"
           id="path3233" />
        <path
           d="M 251.60714 232.36218 A 8.0357141 7.3214288 0 1 1  235.53571,232.36218 A 8.0357141 7.3214288 0 1 1  251.60714 232.36218 z"
           transform="matrix(0.620728,-0.298768,0.298768,0.620728,22.81855,161.2569)"
           style="fill:#000000;fill-opacity:0.79552714;stroke:none;stroke-width:5;stroke-miterlimit:4;stroke-dasharray:none;stroke-opacity:1"
           id="path5858" />
        <path
           d="M 251.60714 232.36218 A 8.0357141 7.3214288 0 1 1  235.53571,232.36218 A 8.0357141 7.3214288 0 1 1  251.60714 232.36218 z"
           transform="matrix(0.15149,0,0,0.15149,203.6043,196.7665)"
           style="fill:#ffffff;fill-opacity:1;stroke:none;stroke-width:5;stroke-miterlimit:4;stroke-dasharray:none;stroke-opacity:1"
           id="path4108" />
        <path
           d="M 251.60714 232.36218 A 8.0357141 7.3214288 0 1 1  235.53571,232.36218 A 8.0357141 7.3214288 0 1 1  251.60714 232.36218 z"
           transform="matrix(0.184823,0,0,0.236856,198.9674,175.5914)"
           style="fill:#ffffff;fill-opacity:1;stroke:none;stroke-width:5;stroke-miterlimit:4;stroke-dasharray:none;stroke-opacity:1"
           id="path6733" />
      </g>
      <path
         d="M 163.39317,255.49288 C 163.39317,255.49288 167.71764,286.58013 156.53926,298.57444 C 145.36091,310.56874 132.46907,306.16268 118.6797,303.47008 C 104.89033,300.77748 101.87137,298.49286 101.38181,287.80406 C 100.89222,277.11527 106.35904,269.7718 116.72144,260.71488 C 127.08387,251.65796 131.16356,252.88186 142.8315,251.57638 C 154.49941,250.27087 163.39317,255.49288 163.39317,255.49288 z "
         style="fill:#df0000;fill-opacity:1;fill-rule:evenodd;stroke:#000000;stroke-width:3;stroke-linecap:butt;stroke-linejoin:miter;stroke-miterlimit:4;stroke-dasharray:none;stroke-opacity:1"
         id="path10276" />
      <path
         d="M 126.98095,229.88442 C 117.63427,230.46139 103.90273,240.03886 97.440809,228.96129 C 90.978921,217.88375 101.13332,185.5742 101.13332,185.5742 L 111.28776,190.65144 C 111.28776,190.65144 106.78752,183.03562 105.74897,176.3429 C 104.71046,169.65022 107.1337,163.88068 107.1337,163.88068 C 107.1337,163.88068 110.24924,172.18884 114.05713,176.80449 C 117.86506,181.42014 122.82688,184.65106 122.3653,182.34324 C 121.90375,180.03545 117.86506,169.7656 116.82655,159.72658 C 115.78803,149.68755 118.21123,142.18711 118.21123,142.18711 C 118.21123,142.18711 122.48071,152.8031 127.44253,160.18816 C 132.40435,167.57319 138.05852,171.72725 138.05852,171.72725 L 137.59697,125.10924 C 137.59697,125.10924 141.28948,139.18695 145.44354,148.18745 C 149.59764,157.18799 154.21329,161.11126 154.21329,161.11126 L 158.82894,115.41639 C 158.82894,115.41639 163.44456,130.18644 166.21397,140.34088 C 168.98334,150.49528 169.90648,156.03406 169.90648,156.03406 C 169.90648,156.03406 174.98368,148.41825 177.29151,138.95619 C 179.59933,129.4941 179.13778,118.18576 179.13778,118.18576 C 179.13778,118.18576 182.25333,129.84027 183.75339,137.57146 C 185.2535,145.3027 185.13812,149.11059 185.13812,149.11059 C 185.13812,149.11059 192.17697,147.84132 196.21566,144.49494 C 200.25434,141.1486 201.29286,135.72523 201.29286,135.72523 C 201.29286,135.72523 200.13896,143.22563 201.75444,146.80276 C 203.36992,150.3799 207.75478,150.03373 207.75478,150.03373 C 207.75478,150.03373 207.40861,164.11143 199.90817,174.03508 C 192.40776,183.95872 177.75309,189.7283 177.75309,189.7283 C 177.75309,189.7283 173.25282,184.30489 164.36769,189.7283 C 155.48257,195.15167 149.59764,202.19052 142.21262,211.42182 C 134.82759,220.65312 134.82756,226.65346 134.82756,226.65346 C 134.82756,226.65346 136.32766,229.30746 126.98095,229.88442 z "
         style="fill:#df0000;fill-opacity:1;fill-rule:evenodd;stroke:#000000;stroke-width:3;stroke-linecap:butt;stroke-linejoin:miter;stroke-miterlimit:4;stroke-dasharray:none;stroke-opacity:1"
         id="path2358" />
    </g>
  </g>
</svg>
